<svg id="visual" viewBox="0 0 1366 768" width="1366" height="768" xmlns="http://www.w3.org/2000/svg" xmlns:xlink="http://www.w3.org/1999/xlink" version="1.1"><g stroke-width="1" stroke-linejoin="bevel"><path d="M693 492.8L543.3 625.4L696 627.4Z" fill="#2b4549" stroke="#2b4549"></path><path d="M693 492.8L494.3 472.8L543.3 625.4Z" fill="#2ea4b3" stroke="#2ea4b3"></path><path d="M543.3 625.4L695 768L696 627.4Z" fill="#20c7d9" stroke="#20c7d9"></path><path d="M338.5 621.4L534.3 768L543.3 625.4Z" fill="#2b4549" stroke="#2b4549"></path><path d="M543.3 625.4L534.3 768L695 768Z" fill="#31636a" stroke="#31636a"></path><path d="M850.8 768L868.8 610.4L696 627.4Z" fill="#31636a" stroke="#31636a"></path><path d="M696 627.4L868.8 610.4L693 492.8Z" fill="#2ea4b3" stroke="#2ea4b3"></path><path d="M868.8 610.4L883.8 452.8L693 492.8Z" fill="#3194a0" stroke="#3194a0"></path><path d="M693 492.8L493.3 294.2L494.3 472.8Z" fill="#32838e" stroke="#32838e"></path><path d="M494.3 472.8L338.5 621.4L543.3 625.4Z" fill="#2b4549" stroke="#2b4549"></path><path d="M312.5 339.2L339.5 473.8L494.3 472.8Z" fill="#29b6c6" stroke="#29b6c6"></path><path d="M494.3 472.8L339.5 473.8L338.5 621.4Z" fill="#29b6c6" stroke="#29b6c6"></path><path d="M701 273.2L493.3 294.2L693 492.8Z" fill="#31636a" stroke="#31636a"></path><path d="M835.8 289.2L701 273.2L693 492.8Z" fill="#20c7d9" stroke="#20c7d9"></path><path d="M695 768L850.8 768L696 627.4Z" fill="#2e5459" stroke="#2e5459"></path><path d="M883.8 452.8L835.8 289.2L693 492.8Z" fill="#31636a" stroke="#31636a"></path><path d="M204.8 768L335.5 768L338.5 621.4Z" fill="#32838e" stroke="#32838e"></path><path d="M338.5 621.4L335.5 768L534.3 768Z" fill="#2e5459" stroke="#2e5459"></path><path d="M1040.5 768L991.5 583.4L868.8 610.4Z" fill="#20c7d9" stroke="#20c7d9"></path><path d="M868.8 610.4L991.5 583.4L883.8 452.8Z" fill="#2ea4b3" stroke="#2ea4b3"></path><path d="M883.8 452.8L1007.5 300.2L835.8 289.2Z" fill="#2b4549" stroke="#2b4549"></path><path d="M493.3 294.2L312.5 339.2L494.3 472.8Z" fill="#2e5459" stroke="#2e5459"></path><path d="M339.5 473.8L166.8 466.8L338.5 621.4Z" fill="#2b4549" stroke="#2b4549"></path><path d="M991.5 583.4L994.5 490.8L883.8 452.8Z" fill="#3194a0" stroke="#3194a0"></path><path d="M701 273.2L502.3 174.6L493.3 294.2Z" fill="#29b6c6" stroke="#29b6c6"></path><path d="M493.3 294.2L347.5 153.6L312.5 339.2Z" fill="#32737c" stroke="#32737c"></path><path d="M670 131.6L502.3 174.6L701 273.2Z" fill="#3194a0" stroke="#3194a0"></path><path d="M858.8 154.6L670 131.6L701 273.2Z" fill="#2b4549" stroke="#2b4549"></path><path d="M312.5 339.2L166.8 466.8L339.5 473.8Z" fill="#3194a0" stroke="#3194a0"></path><path d="M152.8 612.4L204.8 768L338.5 621.4Z" fill="#3194a0" stroke="#3194a0"></path><path d="M1182.3 297.2L1007.5 300.2L994.5 490.8Z" fill="#32838e" stroke="#32838e"></path><path d="M994.5 490.8L1007.5 300.2L883.8 452.8Z" fill="#29b6c6" stroke="#29b6c6"></path><path d="M835.8 289.2L858.8 154.6L701 273.2Z" fill="#2ea4b3" stroke="#2ea4b3"></path><path d="M850.8 768L1040.5 768L868.8 610.4Z" fill="#32737c" stroke="#32737c"></path><path d="M991.5 583.4L1162.3 591.4L994.5 490.8Z" fill="#32838e" stroke="#32838e"></path><path d="M166.8 466.8L152.8 612.4L338.5 621.4Z" fill="#20c7d9" stroke="#20c7d9"></path><path d="M1007.5 300.2L858.8 154.6L835.8 289.2Z" fill="#2ea4b3" stroke="#2ea4b3"></path><path d="M312.5 339.2L197.8 338.2L166.8 466.8Z" fill="#2b4549" stroke="#2b4549"></path><path d="M174.8 154.6L197.8 338.2L312.5 339.2Z" fill="#20c7d9" stroke="#20c7d9"></path><path d="M374.5 0L347.5 153.6L502.3 174.6Z" fill="#31636a" stroke="#31636a"></path><path d="M502.3 174.6L347.5 153.6L493.3 294.2Z" fill="#20c7d9" stroke="#20c7d9"></path><path d="M1040.5 768L1162.3 591.4L991.5 583.4Z" fill="#2e5459" stroke="#2e5459"></path><path d="M858.8 154.6L700 0L670 131.6Z" fill="#29b6c6" stroke="#29b6c6"></path><path d="M670 131.6L506.3 0L502.3 174.6Z" fill="#2e5459" stroke="#2e5459"></path><path d="M700 0L506.3 0L670 131.6Z" fill="#20c7d9" stroke="#20c7d9"></path><path d="M1040.5 768L1175.3 768L1162.3 591.4Z" fill="#273739" stroke="#273739"></path><path d="M1182.3 297.2L1056.5 157.6L1007.5 300.2Z" fill="#22292a" stroke="#22292a"></path><path d="M1007.5 300.2L1056.5 157.6L858.8 154.6Z" fill="#32838e" stroke="#32838e"></path><path d="M858.8 154.6L856.8 0L700 0Z" fill="#2b4549" stroke="#2b4549"></path><path d="M347.5 153.6L174.8 154.6L312.5 339.2Z" fill="#273739" stroke="#273739"></path><path d="M0 427.8L0 604.4L166.8 466.8Z" fill="#3194a0" stroke="#3194a0"></path><path d="M166.8 466.8L0 604.4L152.8 612.4Z" fill="#2b4549" stroke="#2b4549"></path><path d="M374.5 0L174.8 154.6L347.5 153.6Z" fill="#2ea4b3" stroke="#2ea4b3"></path><path d="M1162.3 591.4L1224.3 484.8L994.5 490.8Z" fill="#20c7d9" stroke="#20c7d9"></path><path d="M1366 595.4L1224.3 484.8L1162.3 591.4Z" fill="#31636a" stroke="#31636a"></path><path d="M991.5 0L856.8 0L858.8 154.6Z" fill="#2e5459" stroke="#2e5459"></path><path d="M506.3 0L374.5 0L502.3 174.6Z" fill="#29b6c6" stroke="#29b6c6"></path><path d="M1224.3 484.8L1182.3 297.2L994.5 490.8Z" fill="#32737c" stroke="#32737c"></path><path d="M0 427.8L166.8 466.8L197.8 338.2Z" fill="#31636a" stroke="#31636a"></path><path d="M152.8 612.4L0 768L204.8 768Z" fill="#2b4549" stroke="#2b4549"></path><path d="M0 323.2L0 427.8L197.8 338.2Z" fill="#32838e" stroke="#32838e"></path><path d="M0 604.4L0 768L152.8 612.4Z" fill="#32838e" stroke="#32838e"></path><path d="M174.8 154.6L0 323.2L197.8 338.2Z" fill="#2b4549" stroke="#2b4549"></path><path d="M1366 179.6L1167.3 169.6L1182.3 297.2Z" fill="#273739" stroke="#273739"></path><path d="M1182.3 297.2L1167.3 169.6L1056.5 157.6Z" fill="#2b4549" stroke="#2b4549"></path><path d="M1056.5 157.6L991.5 0L858.8 154.6Z" fill="#3194a0" stroke="#3194a0"></path><path d="M1184.3 0L991.5 0L1056.5 157.6Z" fill="#2e5459" stroke="#2e5459"></path><path d="M374.5 0L140.8 0L174.8 154.6Z" fill="#29b6c6" stroke="#29b6c6"></path><path d="M174.8 154.6L0 118.6L0 323.2Z" fill="#22292a" stroke="#22292a"></path><path d="M1175.3 768L1366 595.4L1162.3 591.4Z" fill="#2e5459" stroke="#2e5459"></path><path d="M1224.3 484.8L1366 286.2L1182.3 297.2Z" fill="#2e5459" stroke="#2e5459"></path><path d="M1366 595.4L1366 483.8L1224.3 484.8Z" fill="#22292a" stroke="#22292a"></path><path d="M140.8 0L0 118.6L174.8 154.6Z" fill="#20c7d9" stroke="#20c7d9"></path><path d="M1175.3 768L1366 768L1366 595.4Z" fill="#2e5459" stroke="#2e5459"></path><path d="M1366 483.8L1366 286.2L1224.3 484.8Z" fill="#2ea4b3" stroke="#2ea4b3"></path><path d="M1167.3 169.6L1184.3 0L1056.5 157.6Z" fill="#3194a0" stroke="#3194a0"></path><path d="M1366 179.6L1184.3 0L1167.3 169.6Z" fill="#22292a" stroke="#22292a"></path><path d="M140.8 0L0 0L0 118.6Z" fill="#273739" stroke="#273739"></path><path d="M1366 286.2L1366 179.6L1182.3 297.2Z" fill="#273739" stroke="#273739"></path><path d="M1366 179.6L1366 0L1184.3 0Z" fill="#273739" stroke="#273739"></path></g></svg>